<svg width="200" height="60" viewBox="0 0 200 60" fill="none" xmlns="http://www.w3.org/2000/svg">
  <!-- Logo Background -->
  <rect width="200" height="60" rx="8" fill="transparent"/>
  
  <!-- Icon Section -->
  <g transform="translate(10, 10)">
    <!-- Mind/Brain Symbol -->
    <circle cx="20" cy="20" r="18" fill="none" stroke="#1B4D72" stroke-width="2"/>
    <path d="M8 20C8 12.5 12.5 8 20 8C27.5 8 32 12.5 32 20" fill="none" stroke="#1B4D72" stroke-width="2"/>
    <path d="M12 16C14 14 18 14 20 16C22 14 26 14 28 16" fill="none" stroke="#E67E22" stroke-width="2"/>
    
    <!-- Wellness Symbol (leaf/growth) -->
    <path d="M20 32C22 28 26 26 30 28C28 24 24 22 20 24C16 22 12 24 10 28C14 26 18 28 20 32Z" 
          fill="#E67E22" opacity="0.8"/>
  </g>
  
  <!-- Text Section -->
  <g transform="translate(55, 15)">
    <!-- "myndwell" text -->
    <text x="0" y="20" font-family="Inter, sans-serif" font-weight="600" font-size="24" fill="#1B4D72">
      mynd<tspan fill="#E67E22">well</tspan>
    </text>
    
    <!-- Tagline -->
    <text x="0" y="35" font-family="Inter, sans-serif" font-weight="400" font-size="10" fill="#64748B">
      MINDFUL WELLNESS PLATFORM
    </text>
  </g>
  
  <!-- Decorative Elements -->
  <circle cx="185" cy="15" r="2" fill="#E67E22" opacity="0.6"/>
  <circle cx="190" cy="25" r="1.5" fill="#1B4D72" opacity="0.4"/>
  <circle cx="185" cy="35" r="1" fill="#E67E22" opacity="0.3"/>
</svg>
