<svg width="40" height="40" viewBox="0 0 40 40" fill="none" xmlns="http://www.w3.org/2000/svg">
  <!-- Background Circle -->
  <circle cx="20" cy="20" r="20" fill="#1B4D72"/>
  
  <!-- Mind/Brain Symbol -->
  <circle cx="20" cy="18" r="12" fill="none" stroke="white" stroke-width="1.5"/>
  <path d="M12 18C12 13 15 10 20 10C25 10 28 13 28 18" fill="none" stroke="white" stroke-width="1.5"/>
  <path d="M15 16C16.5 14.5 19 14.5 20 16C21 14.5 23.5 14.5 25 16" fill="none" stroke="#E67E22" stroke-width="1.5"/>
  
  <!-- Wellness Symbol (stylized leaf) -->
  <path d="M20 26C21.5 23.5 24 22.5 26.5 23.5C25.5 21 22.5 19.5 20 21C17.5 19.5 14.5 21 13.5 23.5C16 22.5 18.5 23.5 20 26Z" 
        fill="#E67E22" opacity="0.9"/>
  
  <!-- Small accent dots -->
  <circle cx="20" cy="32" r="1" fill="#E67E22" opacity="0.7"/>
  <circle cx="16" cy="30" r="0.5" fill="white" opacity="0.5"/>
  <circle cx="24" cy="30" r="0.5" fill="white" opacity="0.5"/>
</svg>
